<svg width="555" height="111" viewBox="0 0 555 111" fill="none" xmlns="http://www.w3.org/2000/svg">
<path fill-rule="evenodd" clip-rule="evenodd" d="M541.011 84.121C541.347 87.947 544.407 92.817 549.709 92.817H552.811C554.014 92.817 555 91.8313 555 90.6277V22.4028H554.986C554.923 21.2534 553.974 20.3329 552.811 20.3329H543.199C542.036 20.3329 541.087 21.2534 541.023 22.4028H541.011V27.9465C535.122 20.6869 525.836 17.6737 516.525 17.6737C495.359 17.6737 478.202 34.8445 478.202 56.027C478.202 77.2108 495.359 94.3821 516.525 94.3821V94.3839C525.836 94.3839 535.983 90.7686 541.01 84.1123L541.011 84.121V84.121ZM516.562 80.959C503.101 80.959 492.188 69.7977 492.188 56.0273C492.188 42.2592 503.101 31.0973 516.562 31.0973C530.022 31.0973 540.934 42.2592 540.934 56.0273C540.934 69.7977 530.022 80.959 516.562 80.959V80.959Z" fill="#FFEAEC"/>
<path fill-rule="evenodd" clip-rule="evenodd" d="M466.05 86.4669L466.045 51.1634H466.046C466.046 31.263 453.501 17.8379 433.497 17.8379C423.947 17.8379 416.119 23.3641 413.355 28.1113C412.757 24.3994 410.788 20.4976 404.681 20.4976H401.569C400.365 20.4976 399.382 21.484 399.382 22.6875V84.2916C399.382 84.2933 399.382 84.298 399.382 84.3009V90.9183H399.394C399.457 92.0659 400.408 92.9876 401.57 92.9876H411.182C411.33 92.9876 411.474 92.9701 411.613 92.9428C411.677 92.9305 411.736 92.9055 411.798 92.888C411.869 92.8659 411.944 92.849 412.012 92.8211C412.097 92.7856 412.175 92.7378 412.255 92.6936C412.294 92.6697 412.334 92.6528 412.372 92.6278C412.468 92.5661 412.556 92.4915 412.641 92.4153C412.655 92.4013 412.672 92.392 412.686 92.3791C412.781 92.2866 412.868 92.1847 412.946 92.0787C412.946 92.077 412.946 92.077 412.946 92.077C413.187 91.7462 413.333 91.348 413.357 90.9183H413.369V50.6161C413.369 39.9282 422.028 31.263 432.709 31.263C443.389 31.263 452.047 39.9282 452.047 50.6161L452.056 84.3032L452.058 84.2916C452.058 84.3213 452.063 84.3521 452.063 84.3842V90.9183H452.076C452.139 92.0659 453.089 92.9876 454.251 92.9876H463.864C464.012 92.9876 464.156 92.9701 464.295 92.9428C464.352 92.9323 464.404 92.9096 464.46 92.8939C464.538 92.8712 464.619 92.8514 464.695 92.8211C464.773 92.7885 464.845 92.7431 464.92 92.7011C464.965 92.6755 465.013 92.6569 465.056 92.6278C465.145 92.5695 465.226 92.4991 465.306 92.4292C465.326 92.4106 465.349 92.3966 465.368 92.3774C465.459 92.2895 465.54 92.1946 465.615 92.095C465.62 92.0874 465.626 92.0816 465.632 92.074C465.868 91.7462 466.013 91.3509 466.038 90.9241C466.038 90.9212 466.039 90.9183 466.039 90.9183H466.052V86.4681L466.05 86.4669" fill="#FFEAEC"/>
<path fill-rule="evenodd" clip-rule="evenodd" d="M365.94 84.1209C366.276 87.9469 369.336 92.8169 374.638 92.8169H377.74C378.943 92.8169 379.927 91.8311 379.927 90.6276V22.4027H379.915C379.852 21.2533 378.901 20.3328 377.74 20.3328H368.128C366.965 20.3328 366.016 21.2533 365.951 22.4027H365.94V27.9464C360.05 20.6868 350.764 17.6736 341.453 17.6736C320.288 17.6736 303.131 34.8444 303.131 56.0269C303.131 77.2106 320.288 94.382 341.453 94.382V94.3838C350.764 94.3838 360.912 90.7685 365.939 84.1121L365.94 84.1209V84.1209ZM341.49 80.9589C328.03 80.9589 317.117 69.7976 317.117 56.0272C317.117 42.2591 328.03 31.0972 341.49 31.0972C354.952 31.0972 365.862 42.2591 365.862 56.0272C365.862 69.7976 354.952 80.9589 341.49 80.9589V80.9589Z" fill="#FFEAEC"/>
<path fill-rule="evenodd" clip-rule="evenodd" d="M246.284 74.3495C252.702 78.7985 259.706 80.9593 266.437 80.9593C272.85 80.9593 279.479 77.6323 279.479 71.8417C279.479 64.1105 265.033 62.9075 255.957 59.8204C246.88 56.7333 239.061 50.3517 239.061 40.0172C239.061 24.2037 253.14 17.6725 266.281 17.6725C274.607 17.6725 283.198 20.4202 288.767 24.3562C290.686 25.8107 289.517 27.4806 289.517 27.4806L284.201 35.0797C283.603 35.9356 282.559 36.6751 281.059 35.7487C279.559 34.8229 274.298 31.0964 266.281 31.0964C258.263 31.0964 253.434 34.8019 253.434 39.3948C253.434 44.9024 259.711 46.6346 267.063 48.5118C279.875 51.9681 293.852 56.1225 293.852 71.8417C293.852 85.7746 280.829 94.385 266.437 94.385C255.53 94.385 246.244 91.2734 238.456 85.5539C236.834 83.9288 237.967 82.4202 237.967 82.4202L243.257 74.8595C244.334 73.4458 245.691 73.939 246.284 74.3495" fill="#FFEAEC"/>
<path fill-rule="evenodd" clip-rule="evenodd" d="M209.331 84.1209C209.668 87.9469 212.728 92.8169 218.03 92.8169H221.132C222.334 92.8169 223.32 91.8311 223.32 90.6276V22.4027H223.307C223.244 21.2533 222.294 20.3328 221.132 20.3328H211.519C210.357 20.3328 209.408 21.2533 209.343 22.4027H209.331V27.9464C203.442 20.6868 194.156 17.6736 184.845 17.6736C163.68 17.6736 146.522 34.8444 146.522 56.0269C146.522 77.2106 163.68 94.382 184.845 94.382V94.3838C194.156 94.3838 204.304 90.7685 209.33 84.1121L209.331 84.1209V84.1209ZM184.883 80.9589C171.422 80.9589 160.509 69.7976 160.509 56.0272C160.509 42.2591 171.422 31.0972 184.883 31.0972C198.343 31.0972 209.255 42.2591 209.255 56.0272C209.255 69.7976 198.343 80.9589 184.883 80.9589V80.9589Z" fill="#FFEAEC"/>
<path fill-rule="evenodd" clip-rule="evenodd" d="M92.794 58.6357C78.5507 58.6357 67.0041 70.1823 67.0041 84.4267C67.0041 98.67 78.5507 110.217 92.794 110.217C107.037 110.217 118.584 98.67 118.584 84.4267C118.584 70.1823 107.037 58.6357 92.794 58.6357V58.6357ZM25.7899 58.6379C11.5466 58.6379 0 70.1823 0 84.4267C0 98.67 11.5466 110.217 25.7899 110.217C40.0338 110.217 51.581 98.67 51.581 84.4267C51.581 70.1823 40.0338 58.6379 25.7899 58.6379V58.6379ZM85.0815 26.3975C85.0815 40.6419 73.5354 52.1897 59.2921 52.1897C45.0483 52.1897 33.5022 40.6419 33.5022 26.3975C33.5022 12.1559 45.0483 0.608154 59.2921 0.608154C73.5354 0.608154 85.0815 12.1559 85.0815 26.3975V26.3975Z" fill="#FF584A"/>
</svg>
