<svg xmlns="http://www.w3.org/2000/svg" xmlns:xlink="http://www.w3.org/1999/xlink" version="1.1" width="256" height="256" viewBox="0 0 256 256" xml:space="preserve">
<g style="stroke: none; stroke-width: 0; stroke-dasharray: none; stroke-linecap: butt; stroke-linejoin: miter; stroke-miterlimit: 10; fill: none; fill-rule: nonzero; opacity: 1;" transform="translate(1.4065934065934016 1.4065934065934016) scale(2.81 2.81)">
	<path d="M 53.265 38.877 h -0.006 c -3.381 0 -6.116 2.742 -6.116 6.116 c 0 3.381 2.735 6.123 6.116 6.123 s 6.123 -2.735 6.123 -6.116 S 56.645 38.877 53.265 38.877 z M 55.852 47.594 c -1.439 1.432 -3.761 1.426 -5.194 -0.006 c -1.426 -1.432 -1.426 -3.755 0 -5.187 c 1.432 -1.439 3.755 -1.439 5.194 -0.006 l 0.006 0.006 C 57.297 43.832 57.29 46.161 55.852 47.594 z" style="stroke: none; stroke-width: 1; stroke-dasharray: none; stroke-linecap: butt; stroke-linejoin: miter; stroke-miterlimit: 10; fill: rgb(74,140,255); fill-rule: nonzero; opacity: 1;" transform=" matrix(1 0 0 1 0 0) " stroke-linecap="round"/>
	<path d="M 45.916 48.703 l -0.613 -0.032 h -5.51 l 7.348 -7.348 L 47.11 40.71 c -0.026 -0.987 -0.819 -1.781 -1.806 -1.806 l -0.613 -0.032 H 35.51 l 0.032 0.613 c 0.045 0.974 0.826 1.761 1.806 1.806 l 0.613 0.032 h 5.51 l -7.348 7.348 l 0.032 0.613 c 0.032 0.981 0.826 1.774 1.806 1.806 l 0.613 0.032 h 9.181 l -0.032 -0.613 C 47.639 49.497 46.923 48.761 45.916 48.703 z" style="stroke: none; stroke-width: 1; stroke-dasharray: none; stroke-linecap: butt; stroke-linejoin: miter; stroke-miterlimit: 10; fill: rgb(74,140,255); fill-rule: nonzero; opacity: 1;" transform=" matrix(1 0 0 1 0 0) " stroke-linecap="round"/>
	<path d="M 85.097 38.877 c -1.406 0 -2.742 0.606 -3.671 1.658 c -1.626 -1.845 -4.374 -2.2 -6.413 -0.819 c -0.471 -0.535 -1.542 -0.839 -2.155 -0.839 v 12.245 l 0.613 -0.032 c 1.019 -0.065 1.768 -0.787 1.806 -1.806 l 0.032 -0.613 v -4.284 l 0.032 -0.613 c 0 -0.426 0.11 -0.845 0.303 -1.226 c 0.671 -1.168 2.168 -1.568 3.342 -0.89 c 0.368 0.213 0.677 0.523 0.89 0.89 h -0.006 c 0.2 0.381 0.303 0.8 0.303 1.226 l 0.032 0.613 v 4.284 l 0.032 0.613 c 0.039 0.981 0.819 1.768 1.8 1.806 l 0.613 0.032 v -6.735 l 0.032 -0.613 c 0 -0.432 0.103 -0.852 0.303 -1.232 c 0.677 -1.168 2.181 -1.568 3.348 -0.884 c 0.368 0.213 0.677 0.523 0.89 0.89 c 0.194 0.381 0.297 0.8 0.297 1.226 l 0.032 0.613 v 4.284 l 0.032 0.613 c 0.032 0.981 0.819 1.768 1.8 1.806 L 90 51.123 v -7.348 C 89.994 41.071 87.8 38.877 85.097 38.877 z" style="stroke: none; stroke-width: 1; stroke-dasharray: none; stroke-linecap: butt; stroke-linejoin: miter; stroke-miterlimit: 10; fill: rgb(74,140,255); fill-rule: nonzero; opacity: 1;" transform=" matrix(1 0 0 1 0 0) " stroke-linecap="round"/>
	<path d="M 70.445 40.671 c -1.148 -1.148 -2.703 -1.794 -4.329 -1.794 c -1.626 0 -3.181 0.645 -4.329 1.794 c -2.387 2.394 -2.387 6.271 0.006 8.658 c 2.394 2.387 6.271 2.387 8.658 -0.006 C 72.845 46.935 72.839 43.058 70.445 40.671 L 70.445 40.671 z M 68.71 47.594 c -1.439 1.432 -3.761 1.426 -5.194 -0.006 c -1.426 -1.432 -1.426 -3.755 0 -5.187 c 1.432 -1.439 3.755 -1.439 5.194 -0.006 l 0.006 0.006 C 70.155 43.832 70.148 46.161 68.71 47.594 z" style="stroke: none; stroke-width: 1; stroke-dasharray: none; stroke-linecap: butt; stroke-linejoin: miter; stroke-miterlimit: 10; fill: rgb(74,140,255); fill-rule: nonzero; opacity: 1;" transform=" matrix(1 0 0 1 0 0) " stroke-linecap="round"/>
	<circle cx="15.613" cy="45.003" r="15.613" style="stroke: none; stroke-width: 1; stroke-dasharray: none; stroke-linecap: butt; stroke-linejoin: miter; stroke-miterlimit: 10; fill: rgb(229,229,228); fill-rule: nonzero; opacity: 1;" transform="  matrix(1 0 0 1 0 0) "/>
	<circle cx="15.613000000000001" cy="45.003" r="15.303" style="stroke: none; stroke-width: 1; stroke-dasharray: none; stroke-linecap: butt; stroke-linejoin: miter; stroke-miterlimit: 10; fill: rgb(255,255,255); fill-rule: nonzero; opacity: 1;" transform="  matrix(1 0 0 1 0 0) "/>
	<ellipse cx="15.617" cy="44.997" rx="14.077" ry="14.077" style="stroke: none; stroke-width: 1; stroke-dasharray: none; stroke-linecap: butt; stroke-linejoin: miter; stroke-miterlimit: 10; fill: rgb(74,140,255); fill-rule: nonzero; opacity: 1;" transform=" matrix(0.9732 -0.2298 0.2298 0.9732 -9.9212 4.7909) "/>
	<path d="M 23.877 40.265 l -3.981 2.91 v 3.658 l 3.981 2.91 c 0.284 0.219 0.613 0.284 0.613 -0.303 v -8.871 C 24.49 40.045 24.226 39.981 23.877 40.265 z" style="stroke: none; stroke-width: 1; stroke-dasharray: none; stroke-linecap: butt; stroke-linejoin: miter; stroke-miterlimit: 10; fill: rgb(255,255,255); fill-rule: nonzero; opacity: 1;" transform=" matrix(1 0 0 1 0 0) " stroke-linecap="round"/>
	<path d="M 18.794 49.897 c 0.271 0 0.49 -0.219 0.497 -0.49 v -6.613 c -0.006 -1.497 -1.226 -2.703 -2.723 -2.697 H 6.923 c -0.271 0.006 -0.49 0.219 -0.497 0.497 V 47.2 c 0.006 1.497 1.226 2.703 2.723 2.697 H 18.794 z" style="stroke: none; stroke-width: 1; stroke-dasharray: none; stroke-linecap: butt; stroke-linejoin: miter; stroke-miterlimit: 10; fill: rgb(255,255,255); fill-rule: nonzero; opacity: 1;" transform=" matrix(1 0 0 1 0 0) " stroke-linecap="round"/>
</g>
</svg>