<svg width="1344" height="40" viewBox="0 0 1344 40" fill="none" xmlns="http://www.w3.org/2000/svg">
<path d="M59.4988 18.2047C58.5323 17.6635 57.4598 17.393 56.2813 17.393C54.6619 17.393 53.3891 17.9035 52.4627 18.9224V12.7812H48.7856V30.24H52.2977V28.7812C53.2099 29.88 54.537 30.4282 56.2813 30.4282C57.4598 30.4282 58.5323 30.1577 59.4988 29.6165C60.4652 29.0753 61.2242 28.3153 61.7734 27.3341C62.3226 26.353 62.5984 25.2118 62.5984 23.9106C62.5984 22.6094 62.3226 21.4682 61.7734 20.4871C61.2242 19.5059 60.4652 18.7459 59.4988 18.2047ZM57.9666 26.4635C57.3608 27.0988 56.5877 27.4165 55.6448 27.4165C54.702 27.4165 53.9289 27.0988 53.3231 26.4635C52.7173 25.8282 52.4156 24.9788 52.4156 23.9106C52.4156 22.8424 52.7173 21.993 53.3231 21.3577C53.9289 20.7224 54.702 20.4047 55.6448 20.4047C56.5877 20.4047 57.3608 20.7224 57.9666 21.3577C58.5724 21.993 58.8741 22.8447 58.8741 23.9106C58.8741 24.9765 58.5724 25.8282 57.9666 26.4635Z" fill="white"/>
<path d="M71.1666 27.44C70.971 27.4871 70.7777 27.5106 70.5891 27.5106C70.087 27.5106 69.6981 27.3647 69.4223 27.0753C69.1465 26.7859 69.0098 26.3741 69.0098 25.84V12.7812H65.3327V26.0518C65.3327 27.4494 65.7334 28.5271 66.5348 29.2871C67.3363 30.0471 68.4512 30.4282 69.882 30.4282C70.542 30.4282 71.1784 30.3247 71.7913 30.1224L71.6263 27.2753C71.5155 27.3388 71.3623 27.393 71.1666 27.44Z" fill="white"/>
<path d="M82.9876 23.84C82.9876 24.9694 82.7213 25.8212 82.1862 26.393C81.6511 26.9647 80.944 27.2518 80.0648 27.2518C78.3511 27.2518 77.4955 26.233 77.4955 24.193V17.5812H73.8184V24.7341C73.8184 26.6165 74.3063 28.0377 75.2798 28.993C76.2533 29.9506 77.5733 30.4283 79.2398 30.4283C80.0247 30.4283 80.7554 30.2824 81.4319 29.993C82.1084 29.7036 82.6882 29.2824 83.1762 28.7341V30.24H86.6647V17.5812H82.9876V23.84Z" fill="white"/>
<path d="M99.5465 18.1812C98.5494 17.6565 97.4298 17.393 96.1876 17.393C94.9454 17.393 93.7432 17.6706 92.7226 18.2283C91.702 18.7859 90.8958 19.553 90.3065 20.5341C89.7172 21.5153 89.4226 22.64 89.4226 23.9106C89.4226 25.1812 89.722 26.2824 90.3183 27.2636C90.9147 28.2447 91.7609 29.0165 92.8522 29.5812C93.9436 30.1459 95.2141 30.4283 96.659 30.4283C97.8069 30.4283 98.8205 30.2518 99.6997 29.8988C100.579 29.5459 101.31 29.04 101.892 28.3812L99.9354 26.2636C99.5111 26.6706 99.0444 26.9788 98.5329 27.1812C98.0214 27.3859 97.4298 27.4871 96.7533 27.4871C95.999 27.4871 95.3437 27.3506 94.7851 27.0753C94.2264 26.8 93.7951 26.4 93.4887 25.8753C93.3237 25.5906 93.2058 25.28 93.1304 24.9459H102.717C102.733 24.7883 102.747 24.6212 102.764 24.44C102.78 24.2588 102.788 24.0988 102.788 23.9577C102.788 22.593 102.498 21.4212 101.915 20.44C101.333 19.4588 100.544 18.7059 99.5465 18.1812ZM94.5494 20.5812C95.0279 20.3083 95.5818 20.1694 96.2112 20.1694C96.8405 20.1694 97.3897 20.3083 97.8612 20.5812C98.3326 20.8565 98.7026 21.2377 98.969 21.7224C99.1458 22.0447 99.2589 22.4071 99.3179 22.8047H93.0856C93.1469 22.4118 93.2577 22.0518 93.4297 21.7341C93.6961 21.24 94.0709 20.8565 94.5494 20.5812Z" fill="white"/>
<path d="M116.235 18.2047C115.269 17.6636 114.196 17.393 113.018 17.393C111.273 17.393 109.946 17.9412 109.034 19.04V17.5812H105.522V34.8047H109.199V28.8988C110.125 29.9177 111.398 30.4283 113.018 30.4283C114.196 30.4283 115.269 30.1577 116.235 29.6165C117.201 29.0753 117.96 28.3153 118.51 27.3341C119.059 26.353 119.335 25.2118 119.335 23.9106C119.335 22.6094 119.059 21.4683 118.51 20.4871C117.96 19.5059 117.201 18.7459 116.235 18.2047ZM114.703 26.4636C114.097 27.0988 113.324 27.4165 112.381 27.4165C111.438 27.4165 110.665 27.0988 110.059 26.4636C109.454 25.8283 109.152 24.9788 109.152 23.9106C109.152 22.8424 109.454 21.993 110.059 21.3577C110.665 20.7224 111.438 20.4047 112.381 20.4047C113.324 20.4047 114.097 20.7224 114.703 21.3577C115.309 21.993 115.61 22.8447 115.61 23.9106C115.61 24.9765 115.309 25.8283 114.703 26.4636Z" fill="white"/>
<path d="M125.579 19.2518V17.5812H122.067V30.24H125.744V24.2636C125.744 23.0871 126.043 22.2047 126.639 21.6165C127.236 21.0283 128.061 20.7341 129.114 20.7341C129.256 20.7341 129.532 20.7506 129.939 20.7812V17.393C128.966 17.393 128.106 17.5506 127.358 17.8636C126.611 18.1765 126.019 18.64 125.579 19.2518Z" fill="white"/>
<path d="M136.091 17.5812H132.414V30.24H136.091V17.5812Z" fill="white"/>
<path d="M134.253 11.7224C133.576 11.7224 133.027 11.9176 132.603 12.3106C132.179 12.7035 131.967 13.1882 131.967 13.7694C131.967 14.3506 132.179 14.8376 132.603 15.2282C133.027 15.6212 133.576 15.8165 134.253 15.8165C134.929 15.8165 135.479 15.6165 135.903 15.2165C136.327 14.8165 136.539 14.3106 136.539 13.6988C136.539 13.1341 136.327 12.6635 135.903 12.2871C135.479 11.9106 134.929 11.7224 134.253 11.7224Z" fill="white"/>
<path d="M147.502 17.393C146.637 17.393 145.843 17.5388 145.122 17.8283C144.398 18.1177 143.795 18.5294 143.307 19.0636V17.5812H139.795V30.24H143.472V23.9812C143.472 22.8518 143.747 22 144.297 21.4283C144.846 20.8565 145.584 20.5694 146.512 20.5694C147.347 20.5694 147.981 20.8165 148.422 21.3106C148.862 21.8047 149.082 22.553 149.082 23.5577V30.24H152.759V22.993C152.759 21.1412 152.276 19.7459 151.309 18.8047C150.343 17.8636 149.075 17.393 147.502 17.393Z" fill="white"/>
<path d="M163.034 27.04C162.593 27.353 162.091 27.5106 161.525 27.5106C161.023 27.5106 160.636 27.3647 160.37 27.0753C160.104 26.7859 159.969 26.3741 159.969 25.84V20.6871H163.104V17.8635H159.969V14.7812H156.292V25.8871C156.292 27.3765 156.7 28.5059 157.518 29.2753C158.336 30.0447 159.505 30.4283 161.03 30.4283C161.596 30.4283 162.14 30.36 162.668 30.2283C163.194 30.0965 163.639 29.8965 164 29.6283L163.034 27.04Z" fill="white"/>
<path d="M28.9291 6.61412L40.0713 11.9576V5.64706C40.0713 2.52941 37.5374 0 34.4142 0H5.65712C2.53392 0 0 2.52941 0 5.64706V23.4824L23.2107 7.09412C24.8866 5.91059 27.0764 5.72706 28.9268 6.61412H28.9291Z" fill="white"/>
<path d="M29.4005 17.4376L40.0713 22.5553V15.7223L27.9273 9.90114C26.6922 9.31056 25.2355 9.43291 24.1158 10.2211L0 27.247V34.3529C0 34.447 0.00942854 34.5364 0.0141428 34.6306L23.6821 17.9176C25.3581 16.7341 27.5478 16.5506 29.3982 17.4376H29.4005Z" fill="#FF6C6C"/>
<path d="M29.872 28.2612L40.0713 33.1529V26.32L28.3987 20.7247C27.1636 20.1341 25.7069 20.2565 24.5873 21.0447L1.07016 37.6494C2.09787 39.0706 3.76669 40 5.65711 40H8.20989L24.1559 28.7412C25.8318 27.5576 28.0216 27.3741 29.872 28.2612Z" fill="#FFCD69"/>
<path d="M25.0611 31.8659L13.5417 40H34.4142C36.7077 40 38.6782 38.6353 39.5669 36.6753L28.8702 31.5482C27.6351 30.9576 26.1783 31.08 25.0587 31.8682L25.0611 31.8659Z" fill="#85FF85"/>
</svg>
